<svg width="118" height="85" viewBox="0 0 118 85" fill="none" xmlns="http://www.w3.org/2000/svg">
<path d="M81.1482 116.302H37.0118C25.0111 116.302 15.3083 106.013 15.3083 93.2885V46.7981C15.3083 33.9185 25.157 23.4756 37.3036 23.4756H80.8929C93.003 23.4756 102.852 33.9185 102.852 46.7981V93.3272C102.852 106.013 93.1489 116.302 81.1482 116.302Z" fill="url(#paint0_radial_280_1320)"/>
<path d="M15.3083 46.6821C15.3083 40.5273 17.6142 34.6247 21.7186 30.2726C25.8229 25.9206 31.3897 23.4756 37.1942 23.4756H44.4894V116.302H37.1942C31.3897 116.302 25.8229 113.857 21.7186 109.505C17.6142 105.153 15.3083 99.2499 15.3083 93.0951V46.6821Z" fill="url(#paint1_linear_280_1320)"/>
<path d="M73.6704 23.4756H80.9657C86.7702 23.4756 92.3369 25.9206 96.4413 30.2726C100.546 34.6247 102.852 40.5273 102.852 46.6821V93.0951C102.852 99.2499 100.546 105.153 96.4413 109.505C92.3369 113.857 86.7702 116.302 80.9657 116.302H73.6704V23.4756Z" fill="url(#paint2_radial_280_1320)"/>
<path d="M13.4844 15.5479V50.7444" stroke="url(#paint3_linear_280_1320)" stroke-width="1.99859" stroke-miterlimit="10"/>
<path d="M15.3085 46.6831V89.2284C11.2961 89.2284 8.01318 85.7474 8.01318 81.5006V54.4109C8.01318 50.1641 11.2961 46.6831 15.3085 46.6831Z" fill="url(#paint4_linear_280_1320)"/>
<path d="M83.7125 71.8232H34.4476C30.34 71.8129 26.4036 70.0774 23.5002 66.9966C20.5968 63.9158 18.9628 59.7406 18.9561 55.3852C18.9628 51.0298 20.5968 46.8547 23.5002 43.7738C26.4036 40.693 30.34 38.9575 34.4476 38.9473H83.7125C87.8201 38.9575 91.7565 40.693 94.6599 43.7738C97.5634 46.8547 99.1973 51.0298 99.2041 55.3852C99.2041 64.4009 92.2079 71.8232 83.7125 71.8232Z" fill="url(#paint5_linear_280_1320)"/>
<path d="M13.4846 19.6086C14.2032 19.6086 14.9146 19.4586 15.5785 19.167C16.2423 18.8754 16.8455 18.4481 17.3535 17.9094C17.8616 17.3706 18.2646 16.7311 18.5396 16.0272C18.8146 15.3233 18.9561 14.5689 18.9561 13.807C18.9561 13.0451 18.8146 12.2907 18.5396 11.5868C18.2646 10.8829 17.8616 10.2434 17.3535 9.70463C16.8455 9.1659 16.2423 8.73855 15.5785 8.44699C14.9146 8.15544 14.2032 8.00537 13.4846 8.00537C12.0335 8.00537 10.6418 8.61661 9.61574 9.70463C8.58964 10.7926 8.01318 12.2683 8.01318 13.807C8.01318 15.3457 8.58964 16.8214 9.61574 17.9094C10.6418 18.9974 12.0335 19.6086 13.4846 19.6086Z" fill="url(#paint6_radial_280_1320)"/>
<path d="M104.676 15.7412V50.8991" stroke="url(#paint7_linear_280_1320)" stroke-width="1.99859" stroke-miterlimit="10"/>
<path d="M104.676 19.9954C106.175 19.9954 107.613 19.3638 108.673 18.2395C109.734 17.1152 110.329 15.5904 110.329 14.0004C110.329 12.4104 109.734 10.8856 108.673 9.76127C107.613 8.63699 106.175 8.00537 104.676 8.00537C103.176 8.00537 101.738 8.63699 100.678 9.76127C99.6174 10.8856 99.0217 12.4104 99.0217 14.0004C99.0217 15.5904 99.6174 17.1152 100.678 18.2395C101.738 19.3638 103.176 19.9954 104.676 19.9954Z" fill="url(#paint8_radial_280_1320)"/>
<path d="M35.3703 46.6831H33.5465C29.5174 46.6831 26.2512 50.1464 26.2512 54.4186V62.1541C26.2512 66.4263 29.5174 69.8896 33.5465 69.8896H35.3703C39.3994 69.8896 42.6656 66.4263 42.6656 62.1541V54.4186C42.6656 50.1464 39.3994 46.6831 35.3703 46.6831Z" fill="url(#paint9_radial_280_1320)"/>
<path d="M77.3183 46.6831H75.4945C71.4654 46.6831 68.1992 50.1464 68.1992 54.4186V62.1541C68.1992 66.4263 71.4654 69.8896 75.4945 69.8896H77.3183C81.3474 69.8896 84.6136 66.4263 84.6136 62.1541V54.4186C84.6136 50.1464 81.3474 46.6831 77.3183 46.6831Z" fill="url(#paint10_radial_280_1320)"/>
<path d="M71.847 11.8726H46.3135C43.2917 11.8726 40.842 14.47 40.842 17.6742C40.842 20.8783 43.2917 23.4758 46.3135 23.4758H71.847C74.8688 23.4758 77.3184 20.8783 77.3184 17.6742C77.3184 14.47 74.8688 11.8726 71.847 11.8726Z" fill="url(#paint11_linear_280_1320)"/>
<path d="M71.847 11.8726H46.3135C43.2917 11.8726 40.842 14.47 40.842 17.6742C40.842 20.8783 43.2917 23.4758 46.3135 23.4758H71.847C74.8688 23.4758 77.3184 20.8783 77.3184 17.6742C77.3184 14.47 74.8688 11.8726 71.847 11.8726Z" fill="url(#paint12_radial_280_1320)"/>
<path d="M102.852 88.9956V46.4116C106.864 46.4116 110.147 49.8926 110.147 54.1471V81.2601C110.147 85.5146 106.864 88.9956 102.852 88.9956Z" fill="url(#paint13_linear_280_1320)"/>
<path d="M42.6655 51.5178C42.6655 48.8477 40.6241 46.6831 38.1059 46.6831C35.5878 46.6831 33.5464 48.8477 33.5464 51.5178V61.1872C33.5464 63.8573 35.5878 66.0219 38.1059 66.0219C40.6241 66.0219 42.6655 63.8573 42.6655 61.1872V51.5178Z" fill="url(#paint14_linear_280_1320)"/>
<path d="M42.6655 51.5178C42.6655 48.8477 40.6241 46.6831 38.1059 46.6831C35.5878 46.6831 33.5464 48.8477 33.5464 51.5178V61.1872C33.5464 63.8573 35.5878 66.0219 38.1059 66.0219C40.6241 66.0219 42.6655 63.8573 42.6655 61.1872V51.5178Z" fill="url(#paint15_radial_280_1320)"/>
<path d="M84.6135 51.5178C84.6135 48.8477 82.5721 46.6831 80.0539 46.6831C77.5358 46.6831 75.4944 48.8477 75.4944 51.5178V61.1872C75.4944 63.8573 77.5358 66.0219 80.0539 66.0219C82.5721 66.0219 84.6135 63.8573 84.6135 61.1872V51.5178Z" fill="url(#paint16_linear_280_1320)"/>
<path d="M84.6135 51.5178C84.6135 48.8477 82.5721 46.6831 80.0539 46.6831C77.5358 46.6831 75.4944 48.8477 75.4944 51.5178V61.1872C75.4944 63.8573 77.5358 66.0219 80.0539 66.0219C82.5721 66.0219 84.6135 63.8573 84.6135 61.1872V51.5178Z" fill="url(#paint17_radial_280_1320)"/>
<g filter="url(#filter0_f_280_1320)">
<path d="M13.9407 19.6084V42.8149" stroke="url(#paint18_linear_280_1320)" stroke-width="0.499647"/>
</g>
<g filter="url(#filter1_f_280_1320)">
<path d="M105.132 19.6084V42.8149" stroke="url(#paint19_linear_280_1320)" stroke-width="0.499647"/>
</g>
<path d="M106.499 58.2864C108.514 58.2864 110.147 55.6889 110.147 52.4847C110.147 49.2806 108.514 46.6831 106.499 46.6831C104.485 46.6831 102.852 49.2806 102.852 52.4847C102.852 55.6889 104.485 58.2864 106.499 58.2864Z" fill="url(#paint20_radial_280_1320)"/>
<path d="M106.499 81.4929C108.514 81.4929 110.147 73.7004 110.147 64.088C110.147 54.4755 108.514 46.6831 106.499 46.6831C104.485 46.6831 102.852 54.4755 102.852 64.088C102.852 73.7004 104.485 81.4929 106.499 81.4929Z" fill="url(#paint21_radial_280_1320)"/>
<path fill-rule="evenodd" clip-rule="evenodd" d="M72.8536 11.9692C73.939 12.185 74.9375 12.7437 75.718 13.572C76.4986 14.4003 77.0246 15.4595 77.2272 16.6105C77.0802 17.2828 76.7663 17.9011 76.3179 18.4014C75.8696 18.9016 75.3033 19.2656 74.6776 19.4555C74.0519 19.6454 73.3897 19.6543 72.7597 19.4814C72.1296 19.3085 71.5547 18.9599 71.0945 18.472C70.6343 17.984 70.3056 17.3744 70.1425 16.7063C69.9794 16.0383 69.9879 15.3361 70.167 14.6727C70.3461 14.0092 70.6893 13.4087 71.1611 12.9333C71.6329 12.4579 72.2196 12.1251 72.8536 11.9692Z" fill="url(#paint22_radial_280_1320)"/>
<defs>
<filter id="filter0_f_280_1320" x="12.6916" y="18.6091" width="2.4981" height="25.2051" filterUnits="userSpaceOnUse" color-interpolation-filters="sRGB">
<feFlood flood-opacity="0" result="BackgroundImageFix"/>
<feBlend mode="normal" in="SourceGraphic" in2="BackgroundImageFix" result="shape"/>
<feGaussianBlur stdDeviation="0.499647" result="effect1_foregroundBlur_280_1320"/>
</filter>
<filter id="filter1_f_280_1320" x="103.883" y="18.6091" width="2.4981" height="25.2051" filterUnits="userSpaceOnUse" color-interpolation-filters="sRGB">
<feFlood flood-opacity="0" result="BackgroundImageFix"/>
<feBlend mode="normal" in="SourceGraphic" in2="BackgroundImageFix" result="shape"/>
<feGaussianBlur stdDeviation="0.499647" result="effect1_foregroundBlur_280_1320"/>
</filter>
<radialGradient id="paint0_radial_280_1320" cx="0" cy="0" r="1" gradientUnits="userSpaceOnUse" gradientTransform="translate(91.908 44.7488) rotate(140.27) scale(87.7437 88.8354)">
<stop stop-color="#EEEBF0"/>
<stop offset="0.493" stop-color="#D1BEE3"/>
<stop offset="1" stop-color="#D0BCE2"/>
</radialGradient>
<linearGradient id="paint1_linear_280_1320" x1="44.4894" y1="69.8886" x2="15.3083" y2="69.8886" gradientUnits="userSpaceOnUse">
<stop stop-color="#D5B2C0" stop-opacity="0"/>
<stop offset="1" stop-color="#B4878D"/>
</linearGradient>
<radialGradient id="paint2_radial_280_1320" cx="0" cy="0" r="1" gradientUnits="userSpaceOnUse" gradientTransform="translate(91.9086 52.4837) rotate(-6.05271) scale(18.3404 74.2399)">
<stop stop-color="#F0EAF6"/>
<stop offset="1" stop-color="#E7E0EF" stop-opacity="0"/>
</radialGradient>
<linearGradient id="paint3_linear_280_1320" x1="-nan" y1="-nan" x2="-nan" y2="-nan" gradientUnits="userSpaceOnUse">
<stop stop-color="#EA248A"/>
<stop offset="1" stop-color="#DF2232"/>
</linearGradient>
<linearGradient id="paint4_linear_280_1320" x1="11.6608" y1="46.6831" x2="11.6608" y2="89.2284" gradientUnits="userSpaceOnUse">
<stop stop-color="#E93273"/>
<stop offset="1" stop-color="#D21844"/>
</linearGradient>
<linearGradient id="paint5_linear_280_1320" x1="59.0728" y1="68.7328" x2="59.0728" y2="44.3273" gradientUnits="userSpaceOnUse">
<stop offset="0.006" stop-color="#443E75"/>
<stop offset="1" stop-color="#2F1A3B"/>
</linearGradient>
<radialGradient id="paint6_radial_280_1320" cx="0" cy="0" r="1" gradientUnits="userSpaceOnUse" gradientTransform="translate(15.3085 11.8731) rotate(103.266) scale(7.9476 7.54437)">
<stop stop-color="#FF6C82"/>
<stop offset="0.441" stop-color="#FF2455"/>
<stop offset="1" stop-color="#D9206C"/>
</radialGradient>
<linearGradient id="paint7_linear_280_1320" x1="-nan" y1="-nan" x2="-nan" y2="-nan" gradientUnits="userSpaceOnUse">
<stop stop-color="#EA248A"/>
<stop offset="1" stop-color="#DF2232"/>
</linearGradient>
<radialGradient id="paint8_radial_280_1320" cx="0" cy="0" r="1" gradientUnits="userSpaceOnUse" gradientTransform="translate(106.558 12.0003) rotate(103.266) scale(8.21251 7.79584)">
<stop stop-color="#FF6C82"/>
<stop offset="0.441" stop-color="#FF2455"/>
<stop offset="1" stop-color="#D9206C"/>
</radialGradient>
<radialGradient id="paint9_radial_280_1320" cx="0" cy="0" r="1" gradientUnits="userSpaceOnUse" gradientTransform="translate(35.3703 58.2864) rotate(168.027) scale(9.32189 13.4629)">
<stop stop-color="#322649"/>
<stop offset="1" stop-color="#342950" stop-opacity="0"/>
</radialGradient>
<radialGradient id="paint10_radial_280_1320" cx="0" cy="0" r="1" gradientUnits="userSpaceOnUse" gradientTransform="translate(77.3183 58.2864) rotate(168.027) scale(9.32189 13.4629)">
<stop stop-color="#322649"/>
<stop offset="1" stop-color="#342950" stop-opacity="0"/>
</radialGradient>
<linearGradient id="paint11_linear_280_1320" x1="59.0802" y1="11.8726" x2="53.0449" y2="25.1535" gradientUnits="userSpaceOnUse">
<stop stop-color="#FFCE2B"/>
<stop offset="1" stop-color="#D9862D"/>
</linearGradient>
<radialGradient id="paint12_radial_280_1320" cx="0" cy="0" r="1" gradientUnits="userSpaceOnUse" gradientTransform="translate(59.0802 15.7403) rotate(90) scale(11.6033 36.4764)">
<stop offset="0.431" stop-color="#CA7E29" stop-opacity="0"/>
<stop offset="1" stop-color="#673F13"/>
</radialGradient>
<linearGradient id="paint13_linear_280_1320" x1="106.499" y1="46.4116" x2="106.499" y2="88.9956" gradientUnits="userSpaceOnUse">
<stop stop-color="#FF30AA"/>
<stop offset="1" stop-color="#FF2353"/>
</linearGradient>
<linearGradient id="paint14_linear_280_1320" x1="42.6655" y1="54.4186" x2="33.5464" y2="54.4186" gradientUnits="userSpaceOnUse">
<stop stop-color="#29B6FE"/>
<stop offset="1" stop-color="#1769A8"/>
</linearGradient>
<radialGradient id="paint15_radial_280_1320" cx="0" cy="0" r="1" gradientUnits="userSpaceOnUse" gradientTransform="translate(40.8417 52.4847) rotate(90) scale(9.66938 4.17264)">
<stop stop-color="#54C8FF"/>
<stop offset="1" stop-color="#54C8FF" stop-opacity="0"/>
</radialGradient>
<linearGradient id="paint16_linear_280_1320" x1="84.6135" y1="54.4186" x2="75.4944" y2="54.4186" gradientUnits="userSpaceOnUse">
<stop stop-color="#29B6FE"/>
<stop offset="1" stop-color="#1769A8"/>
</linearGradient>
<radialGradient id="paint17_radial_280_1320" cx="0" cy="0" r="1" gradientUnits="userSpaceOnUse" gradientTransform="translate(82.7897 52.4847) rotate(90) scale(9.66938 4.17264)">
<stop stop-color="#54C8FF"/>
<stop offset="1" stop-color="#54C8FF" stop-opacity="0"/>
</radialGradient>
<linearGradient id="paint18_linear_280_1320" x1="-nan" y1="-nan" x2="-nan" y2="-nan" gradientUnits="userSpaceOnUse">
<stop stop-color="#FF96CB"/>
<stop offset="1" stop-color="#FF6DB7" stop-opacity="0"/>
</linearGradient>
<linearGradient id="paint19_linear_280_1320" x1="-nan" y1="-nan" x2="-nan" y2="-nan" gradientUnits="userSpaceOnUse">
<stop stop-color="#FF96CB"/>
<stop offset="1" stop-color="#FF6DB7" stop-opacity="0"/>
</linearGradient>
<radialGradient id="paint20_radial_280_1320" cx="0" cy="0" r="1" gradientUnits="userSpaceOnUse" gradientTransform="translate(106.499 52.4847) rotate(90) scale(5.80163 3.64763)">
<stop stop-color="#FF72C1"/>
<stop offset="1" stop-color="#FF6EBF" stop-opacity="0"/>
</radialGradient>
<radialGradient id="paint21_radial_280_1320" cx="0" cy="0" r="1" gradientUnits="userSpaceOnUse" gradientTransform="translate(106.499 64.088) rotate(90) scale(17.4049 2.04063)">
<stop stop-color="#FF4B9C"/>
<stop offset="1" stop-color="#FF73C1" stop-opacity="0"/>
</radialGradient>
<radialGradient id="paint22_radial_280_1320" cx="0" cy="0" r="1" gradientUnits="userSpaceOnUse" gradientTransform="translate(73.6707 15.7403) rotate(90) scale(3.86775 3.64763)">
<stop stop-color="#FFEA60"/>
<stop offset="1" stop-color="#FFEF66" stop-opacity="0"/>
</radialGradient>
</defs>
</svg>
