<svg width="24" height="22" viewBox="0 0 24 22" fill="none" xmlns="http://www.w3.org/2000/svg">
<path d="M9.08407 2.50944L5.63489 6.56387H1.67823C1.16417 6.56387 0.747803 7.05341 0.747803 7.65782V14.2215C0.747803 14.8254 1.16417 15.3154 1.67823 15.3154H5.63489L9.08407 19.3698C9.66675 20.0549 10.6724 19.5736 10.6724 18.5963V3.28295C10.6724 2.30479 9.66597 1.82527 9.08407 2.50944ZM18.1294 0.181168C17.6964 -0.152941 17.1145 -0.0120956 16.8303 0.497956C16.5457 1.00709 16.6667 1.69127 17.0997 2.02537C19.6689 4.00769 21.2021 7.34012 21.2021 10.9401C21.2021 14.5401 19.6689 17.8725 17.0997 19.8548C16.6667 20.1885 16.5457 20.8731 16.8303 21.3818C17.1032 21.87 17.6805 22.0455 18.1294 21.6986C21.2277 19.3074 23.0781 15.2849 23.0781 10.9396C23.0781 6.59441 21.2277 2.57235 18.1294 0.181168ZM19.3564 10.9396C19.3564 8.04389 18.1135 5.3815 16.0313 3.81807C15.5975 3.49263 15.0221 3.64395 14.7473 4.15811C14.4724 4.67226 14.6007 5.35279 15.0346 5.67869C16.5756 6.83599 17.4955 8.80235 17.4955 10.9396C17.4955 13.0769 16.5756 15.0433 15.0346 16.2006C14.6007 16.5261 14.4724 17.2066 14.7473 17.7212C14.9997 18.1934 15.5661 18.4113 16.0313 18.0612C18.1135 16.4978 19.3564 13.8359 19.3564 10.9396ZM13.8603 7.43584C13.4113 7.14731 12.8449 7.33738 12.5961 7.86658C12.3483 8.39577 12.5123 9.0608 12.9624 9.35297C13.4629 9.67614 13.7738 10.2846 13.7738 10.9396C13.7738 11.5951 13.4629 12.2032 12.9628 12.5263C12.5127 12.8185 12.3487 13.4835 12.5964 14.0127C12.8457 14.5442 13.4125 14.7329 13.8607 14.4435C14.9551 13.7347 15.6351 12.3923 15.6351 10.9392C15.6351 9.48607 14.9551 8.14417 13.8603 7.43584Z" fill="black"/>
</svg>
