<svg width="50" height="50" viewBox="0 0 50 50" fill="none" xmlns="http://www.w3.org/2000/svg">
<path d="M25 47.4167C22.7292 47.4167 20.4792 46.75 18.7084 45.4375L9.75004 38.75C7.37504 36.9792 5.52087 33.2917 5.52087 30.3333V14.8333C5.52087 11.625 7.87504 8.20833 10.8959 7.08333L21.2917 3.1875C23.3542 2.41667 26.6042 2.41667 28.6667 3.1875L39.0834 7.08333C42.1042 8.20833 44.4584 11.625 44.4584 14.8333V30.3125C44.4584 33.2708 42.6042 36.9583 40.2292 38.7292L31.2709 45.4167C29.5209 46.75 27.2709 47.4167 25 47.4167ZM22.3959 6.125L12 10.0208C10.2084 10.6875 8.64587 12.9375 8.64587 14.8542V30.3333C8.64587 32.3125 10.0417 35.0833 11.6042 36.25L20.5625 42.9375C22.9584 44.7292 27.0209 44.7292 29.4167 42.9375L38.375 36.25C39.9584 35.0625 41.3334 32.2917 41.3334 30.3333V14.8333C41.3334 12.9375 39.7709 10.6875 37.9792 10L27.5834 6.10417C26.2084 5.60417 23.7917 5.60417 22.3959 6.125Z" fill="#292D32"/>
<path d="M25 27.6042C21.8334 27.6042 19.2709 25.0417 19.2709 21.875C19.2709 18.7084 21.8334 16.1459 25 16.1459C28.1667 16.1459 30.7292 18.7084 30.7292 21.875C30.7292 25.0417 28.1667 27.6042 25 27.6042ZM25 19.2709C23.5625 19.2709 22.3959 20.4375 22.3959 21.875C22.3959 23.3125 23.5625 24.4792 25 24.4792C26.4375 24.4792 27.6042 23.3125 27.6042 21.875C27.6042 20.4375 26.4375 19.2709 25 19.2709Z" fill="#292D32"/>
<path d="M25 33.8541C24.1458 33.8541 23.4375 33.1458 23.4375 32.2916V26.0416C23.4375 25.1875 24.1458 24.4791 25 24.4791C25.8542 24.4791 26.5625 25.1875 26.5625 26.0416V32.2916C26.5625 33.1458 25.8542 33.8541 25 33.8541Z" fill="#292D32"/>
</svg>
