<svg width="100" height="100" viewBox="0 0 100 100" fill="none" xmlns="http://www.w3.org/2000/svg">
    <path d="M50 94.7917C25.2917 94.7917 5.20837 74.7084 5.20837 50C5.20837 40.1667 8.33337 30.8334 14.25 23C15.2917 21.625 17.25 21.375 18.625 22.4167C20 23.4584 20.2917 25.4167 19.25 26.7917C14.1667 33.5 11.4584 41.5417 11.4584 50C11.4584 71.25 28.75 88.5417 50 88.5417C71.25 88.5417 88.5417 71.25 88.5417 50C88.5417 28.75 71.25 11.4584 50 11.4584C48.2917 11.4584 46.875 10.0417 46.875 8.33337C46.875 6.62504 48.2917 5.20837 50 5.20837C74.7084 5.20837 94.7917 25.2917 94.7917 50C94.7917 74.7084 74.7084 94.7917 50 94.7917Z" fill="white"/>
    <path d="M50 82.2917C32.2084 82.2917 17.7084 67.7917 17.7084 50C17.7084 48.2917 19.125 46.875 20.8334 46.875C22.5417 46.875 23.9584 48.2917 23.9584 50C23.9584 64.375 35.625 76.0417 50 76.0417C64.375 76.0417 76.0417 64.375 76.0417 50C76.0417 35.625 64.375 23.9584 50 23.9584C48.2917 23.9584 46.875 22.5417 46.875 20.8334C46.875 19.125 48.2917 17.7084 50 17.7084C67.7917 17.7084 82.2917 32.2084 82.2917 50C82.2917 67.7917 67.7917 82.2917 50 82.2917Z" fill="white"/>
    <path d="M50 69.7917C48.2917 69.7917 46.875 68.375 46.875 66.6667C46.875 64.9584 48.2917 63.5417 50 63.5417C57.4583 63.5417 63.5417 57.4584 63.5417 50C63.5417 42.5417 57.4583 36.4584 50 36.4584C48.2917 36.4584 46.875 35.0417 46.875 33.3334C46.875 31.625 48.2917 30.2084 50 30.2084C60.9167 30.2084 69.7917 39.0834 69.7917 50C69.7917 60.9167 60.9167 69.7917 50 69.7917Z" fill="white"/>
</svg>
