<svg width="19" height="26" viewBox="0 0 19 26" fill="none" xmlns="http://www.w3.org/2000/svg">
<path d="M8.3177 19.362L8.31774 19.362C12.5024 19.7538 16.0797 16.5902 16.0797 12.5965V10.2346C16.0797 10.0948 16.2034 9.94735 16.3997 9.94735H17.2196C17.4159 9.94735 17.5396 10.0948 17.5396 10.2346V12.5965C17.5396 16.7002 14.3483 20.1252 10.1845 20.6737L9.74979 20.731V21.1694V22.8311V23.3311H10.2498H13.1197C13.316 23.3311 13.4397 23.4785 13.4397 23.6184V24.4056C13.4397 24.5455 13.316 24.6929 13.1197 24.6929H4.9199C4.72363 24.6929 4.59992 24.5455 4.59992 24.4056V23.6184C4.59992 23.4785 4.72363 23.3311 4.9199 23.3311H7.78984H8.28984V22.8311V21.1507V20.7126L7.85547 20.6551C3.60083 20.0917 0.5 16.379 0.5 12.2107V10.2346C0.5 10.0948 0.623709 9.94735 0.819983 9.94735H1.63997C1.83624 9.94735 1.95995 10.0948 1.95995 10.2346V12.316C1.95995 15.8487 4.64015 19.0174 8.3177 19.362ZM13.4397 12.5965C13.4397 14.9102 11.4803 16.8201 9.01982 16.8201C6.55936 16.8201 4.59992 14.9102 4.59992 12.5965V4.72367C4.59992 2.40996 6.55936 0.5 9.01982 0.5C11.4803 0.5 13.4397 2.40996 13.4397 4.72367V12.5965Z" fill="white" stroke="black"/>
</svg>
