<svg width="21" height="21" viewBox="0 0 21 21" fill="none" xmlns="http://www.w3.org/2000/svg">
<path d="M19.0277 7.3221L5.02849 0.320089C4.47601 0.045019 3.85217 -0.0529077 3.24202 0.03966C2.63187 0.132228 2.06511 0.410785 1.619 0.837353C1.1729 1.26392 0.869167 1.81774 0.749213 2.4233C0.62926 3.02886 0.698925 3.6567 0.94871 4.22121L3.34858 9.59275C3.40303 9.72262 3.43108 9.86203 3.43108 10.0029C3.43108 10.1437 3.40303 10.2831 3.34858 10.413L0.94871 15.7845C0.745421 16.2414 0.659481 16.7418 0.698701 17.2403C0.73792 17.7388 0.901055 18.2196 1.17328 18.639C1.4455 19.0585 1.81819 19.4032 2.25746 19.6418C2.69673 19.8805 3.18867 20.0056 3.68856 20.0057C4.15677 20.0011 4.618 19.8917 5.03849 19.6856L19.0377 12.6836C19.5343 12.4337 19.9517 12.0508 20.2434 11.5774C20.535 11.104 20.6895 10.5589 20.6895 10.0029C20.6895 9.44681 20.535 8.9017 20.2434 8.42833C19.9517 7.95497 19.5343 7.57198 19.0377 7.3221H19.0277ZM18.1378 10.8931L4.13854 17.8951C3.95471 17.9834 3.74829 18.0134 3.54696 17.981C3.34562 17.9486 3.159 17.8554 3.01211 17.7139C2.86522 17.5724 2.76509 17.3894 2.72514 17.1894C2.6852 16.9893 2.70734 16.7818 2.78861 16.5948L5.17848 11.2232C5.20942 11.1515 5.23613 11.078 5.25848 11.0032H12.1481C12.4133 11.0032 12.6676 10.8978 12.8552 10.7102C13.0427 10.5226 13.148 10.2682 13.148 10.0029C13.148 9.73757 13.0427 9.48314 12.8552 9.29556C12.6676 9.10796 12.4133 9.00258 12.1481 9.00258H5.25848C5.23613 8.92772 5.20942 8.85424 5.17848 8.78251L2.78861 3.41097C2.70734 3.22388 2.6852 3.01641 2.72514 2.81637C2.76509 2.61634 2.86522 2.4333 3.01211 2.2918C3.159 2.15031 3.34562 2.05712 3.54696 2.02473C3.74829 1.99234 3.95471 2.02231 4.13854 2.1106L18.1378 9.11261C18.3016 9.19655 18.439 9.32408 18.535 9.48116C18.631 9.63824 18.6818 9.81876 18.6818 10.0029C18.6818 10.187 18.631 10.3675 18.535 10.5246C18.439 10.6816 18.3016 10.8092 18.1378 10.8931Z" fill="#8C8C8C"/>
</svg>
